{"title":"Chaos.S01EP10.XviD.IARG","uid":6495904,"size":367112238,"categoryP":"video","categoryS":"tv_shows","magnet":"?xt=urn:btih:531bfbab63cce347b0af6ae38aa6ecef3569fb9c&amp;dn=Chaos.S01EP10.XviD.IARG&amp;tr=udp%3A%2F%2Ftracker.openbittorrent.com%3A80&amp;tr=udp%3A%2F%2Fopen.demonii.com%3A1337&amp;tr=udp%3A%2F%2Ftracker.coppersurfer.tk%3A6969&amp;tr=udp%3A%2F%2Fexodus.desync.com%3A6969","seeders":0,"leechers":1,"uploader":"scoobey","files":2,"time":1309070208,"description":" &lt;a href=&quot;http://en.wikipedia.org/wiki/Chaos_%28TV_series%29&quot; rel=&quot;nofollow&quot; target=&quot;_NEW&quot;&gt;http://en.wikipedia.org/wiki/Chaos_%28TV_series%29&lt;/a&gt;\n &lt;a href=&quot;\nhttp://www.imdb.com/title/tt1591468/&quot; rel=&quot;nofollow&quot; target=&quot;_NEW&quot;&gt;\nhttp://www.imdb.com/title/tt1591468/&lt;/a&gt;\n\n\nChaos.S01E10.XviD.IARG\n\n\nFormat                           : AVI\nFormat/Info                      : Audio Video Interleave\nFile size                        : 350 MiB\nDuration                         : 41mn 48s\nOverall bit rate                 : 1 171 Kbps\nWriting application              : VirtualDubMod 1.5.4.1 (build 2178/release)\nWriting library                  : VirtualDubMod build 2178/release\n\nVideo\nID                               : 0\nFormat                           : MPEG-4 Visual\nFormat profile                   : Advanced Simple@L5\nFormat settings, BVOP            : 1\nFormat settings, QPel            : No\nFormat settings, GMC             : No warppoints\nFormat settings, Matrix          : Custom\nCodec ID                         : XVID\nCodec ID/Hint                    : XviD\nDuration                         : 41mn 48s\nBit rate                         : 1 048 Kbps\nWidth                            : 624 pixels\nHeight                           : 352 pixels\nDisplay aspect ratio             : 16:9\nFrame rate                       : 23.976 fps\nColor space                      : YUV\nChroma subsampling               : 4:2:0\nBit depth                        : 8 bits\nScan type                        : Progressive\nCompression mode                 : Lossy\nBits/(Pixel*Frame)               : 0.199\nStream size                      : 313 MiB (90%)\nWriting library                  : XviD 64\n\nAudio\nID                               : 1\nFormat                           : MPEG Audio\nFormat version                   : Version 1\nFormat profile                   : Layer 3\nMode                             : Joint stereo\nMode extension                   : MS Stereo\nCodec ID                         : 55\nCodec ID/Hint                    : MP3\nDuration                         : 41mn 48s\nBit rate mode                    : Variable\nBit rate                         : 110 Kbps\nNominal bit rate                 : 128 Kbps\nChannel(s)                       : 2 channels\nSampling rate                    : 48.0 KHz\nCompression mode                 : Lossy\nStream size                      : 32.9 MiB (9%)\nAlignment                        : Aligned on interleaves\nInterleave, duration             : 24 ms (0.58 video frame)\nInterleave, preload duration     : 589 ms\nWriting library                  : LAME3.98r\nEncoding settings                : -m j -V 4 -q 2 -lowpass 17 --abr 128\n\n\n\n","torrent":{"xt":"urn:btih:531bfbab63cce347b0af6ae38aa6ecef3569fb9c","amp;dn":"Chaos.S01EP10.XviD.IARG","amp;tr":["udp%3A%2F%2Ftracker.openbittorrent.com%3A80","udp%3A%2F%2Fopen.demonii.com%3A1337","udp%3A%2F%2Ftracker.coppersurfer.tk%3A6969","udp%3A%2F%2Fexodus.desync.com%3A6969"],"infoHash":"531bfbab63cce347b0af6ae38aa6ecef3569fb9c","infoHashBuffer":{"type":"Buffer","data":[83,27,251,171,99,204,227,71,176,175,106,227,138,166,236,239,53,105,251,156]},"announce":[],"urlList":[]}}